<svg height="512pt" viewBox="0 -9 512.00081 512" width="512pt" xmlns="http://www.w3.org/2000/svg"><path d="m505.226562 393.742188c-.988281-4.382813-2.265624-10.164063-3.492187-15.742188l-.210937-.953125c-2.164063-9.855469-3.613282-16.417969-4.003907-17.835937-4.039062-14.632813-8.835937-29.195313-14.253906-43.273438-7.816406-20.300781-18.128906-40.035156-28.101563-59.117188l-.597656-1.144531c-3.707031-7.109375-7.539062-14.457031-11.167968-21.71875-2.972657-5.917969-5.84375-11.035156-10.847657-13.65625-1.875-.992187-4.222656-1.472656-7.175781-1.472656-3.328125 0-7.023438.613281-10.203125 1.210937l-6.515625 1.226563 2.972656 5.925781c5.492188 10.960938 7.394532 23.035156 5.351563 34.003906l-.695313 3.746094 3.425782 1.664063c13.414062 6.53125 23.855468 16.105469 30.1875 27.695312 8.660156 15.835938 8.585937 35.050781-.179688 48.953125l-1.792969 2.847656 1.957031 2.734376c10.113282 14.101562 13.707032 31.453124 9.613282 46.414062l-1.75 6.390625 49.183594-.515625-1.414063-6.070312c-.089844-.398438-.183594-.816407-.289063-1.3125zm0 0" fill="#939baa"/><path d="m424.097656 55.773438-5.742187-.304688c-56.722657-3.039062-114.382813-4.578125-171.382813-4.578125-48.859375 0-98.320312 1.132813-147.003906 3.363281l-6.105469.28125 25.699219 102.660156 4.964844-1.414062c4.4375-1.265625 9.316406-1.371094 13.542968-1.371094l220.742188.3125c9.449219.007813 20.160156.019532 29.597656 3.496094.210938.078125.417969.164062.625.25l.546875.222656 4.714844 1.863282 1.796875-4.742188c11.582031-30.5625 20.632812-62.320312 26.902344-94.394531zm0 0" fill="#939baa"/><path d="m288.703125 223.277344 6.609375-8.164063-65.421875.117188 5.675781 7.898437c2.71875 3.785156 4.898438 7.78125 6.476563 11.882813 6.417969 16.621093 3.042969 35.644531-8.386719 47.429687-.113281.09375-.222656.195313-.332031.304688l-2.765625 2.765625 2.015625 3.347656.21875.351563.070312.128906c10.714844 18.980468 9.410157 43.160156-3.171875 58.796875l-2.398437 2.984375 2.253906 3.09375c9.730469 13.375 14.648437 29.140625 13.847656 44.394531l-.277343 5.320313 34.761718-.371094-.203125-5.144532c-.523437-13.246093 3.066407-26.730468 10.386719-39l2.054688-3.445312-2.917969-2.753906c-11.496094-10.835938-15.820313-29.234375-10.757813-45.777344 1.246094-4.074219 3.085938-8.148438 5.464844-12.109375l2.09375-3.441406-2.9375-2.757813c-8.191406-13.84375-9.242188-31.839844-2.8125-48.140625 2.449219-6.207031 5.964844-12.167969 10.453125-17.710937zm0 0" fill="#939baa"/><path d="m95.179688 218.144531-1.679688-.160156c-1.75-.167969-3.601562-.34375-5.769531-.574219l-3.722657-.398437-78.289062 189.449219 48.292969-.519532s-1.8125-6.363281-1.824219-6.394531c-2.214844-11.40625-.578125-23.402344 4.625-33.8125 2.648438-5.3125 6.367188-10.199219 11.355469-14.9375l2.746093-2.605469-1.761718-3.347656c-7.890625-15.003906-5.78125-35.664062 5.25-51.414062 4.570312-6.519532 10.609375-12.460938 17.953125-17.660157l3.113281-2.199219-1.296875-3.585937c-4.90625-13.523437-2.019531-30.265625 7.53125-43.699219l4.996094-7.019531-8.578125-.851563c-1.039063-.101562-2.023438-.191406-2.941406-.269531zm0 0" fill="#939baa"/><path d="m415.867188 359.34375c-1.820313 0-3.621094.210938-5.320313.617188-.667969.15625-1.351563.347656-2.035156.539062l-.445313.125c-1.863281.535156-3.789062 1.085938-5.53125 1.085938-1.058594 0-1.921875-.203126-2.722656-.640626-2.351562-1.28125-3.039062-3.992187-3.832031-8.050781-.53125-2.714843-1.078125-5.527343-2.621094-7.863281-2.144531-3.261719-6.03125-5.128906-10.664063-5.128906-2.09375 0-4.214843.390625-6.132812 1.128906-4.726562 1.832031-8.46875 5.242188-12.089844 8.539062l-.140625.128907c-.503906.464843-1.007812.921875-1.566406 1.429687-3.78125 3.402344-8.339844 6.945313-13.507813 7.460938-.480468.050781-.984374.074218-1.492187.074218-2.234375 0-4.46875-.449218-6.832031-.925781l-.160156-.035156c-1.351563-.273437-2.75-.558594-4.164063-.746094-1.289063-.167969-2.617187-.253906-3.9375-.253906-10.207031 0-20.25 5-26.203125 13.050781-6.164062 8.332032-7.894531 20.121094-4.40625 30.03125l1.1875 3.378906 132.390625-1.40625.253906-4.234374c5.621094-7.902344 5.851563-19.367188.511719-27.445313-4.410156-6.699219-12.28125-10.859375-20.539062-10.859375zm0 0" fill="#af7979"/><path d="m229.816406 283.128906-4.386718 8.136719c-12.039063 7.515625-22.144532 17.996094-29.246094 30.34375l-2.65625 4.617187 4.78125 2.359376c9.773437 4.820312 18.210937 10.953124 25.085937 18.226562l4.152344 4.398438 3.535156-4.90625c10.738281-14.882813 11.960938-36.820313 3.046875-54.585938zm0 0" fill="#af7979"/><path d="m213.683594 276.425781 5.488281-4.105469-5.582031-3.972656c-9-6.402344-19.660156-10.949218-30.832032-13.152344-2.605468-.515624-5.300781-.921874-8.015624-1.207031l-2.773438-.292969-1.707031 2.210938c-12.320313 15.957031-17.933594 37.339844-15.035157 57.242188v4.644531l4.597657.375c4.25.34375 8.40625.90625 12.335937 1.667969 1.535156.304687 3.136719.660156 4.886719 1.085937l4.339844 1.050781 1.535156-4.191406c5.964844-16.296875 16.890625-30.984375 30.761719-41.355469zm0 0" fill="#af7979"/><path d="m121.242188 261.304688c-10.425782 3.660156-19.621094 8.160156-27.328126 13.375l-5.066406 3.429687 4.371094 4.28125c7.152344 7.015625 12.929688 15.578125 16.703125 24.75.636719 1.566406 1.230469 3.144531 1.828125 4.742187.988281 2.675782 1.828125 4.902344 2.878906 7.183594l1.765625 3.828125 4.070313-1.09375c4.972656-1.335937 10.097656-2.351562 15.230468-3.019531l5.675782-.742188-1.496094-5.527343c-4.433594-16.34375-1.457031-34.808594 7.957031-49.398438l6.308594-9.78125-11.4375 2.15625c-6.976563 1.3125-14.195313 3.269531-21.460937 5.816407zm0 0" fill="#af7979"/><path d="m84.210938 290.65625-3.964844-4.851562-3.851563 4.941406c-.714843.917968-1.367187 1.796875-1.992187 2.683594-10.507813 14.992187-13 34.277343-6.347656 49.132812l2.570312 5.746094 5.015625-3.804688c4.789063-3.636718 9.917969-6.878906 14.734375-9.835937 2.464844-1.507813 5.089844-2.96875 7.800781-4.351563l3.847657-1.960937-1.378907-4.09375c-2.777343-12.222657-8.460937-23.839844-16.433593-33.605469zm0 0" fill="#af7979"/><path d="m243.625 239.804688-1.464844-1.105469c-20.605468-15.539063-46.144531-24.097657-71.914062-24.097657-.75 0-1.503906.003907-2.25.019532-26.433594.488281-52.324219 9.925781-72.902344 26.570312l-1.273438 1.03125-.417968 1.582032c-2.152344 8.171874-2.160156 16.386718-.027344 23.765624l1.757812 6.074219 5.503907-3.109375c6.183593-3.492187 13.117187-6.601562 20.609375-9.238281 14.914062-5.234375 29.320312-7.890625 42.816406-7.890625 6.402344 0 12.695312.601562 18.699219 1.789062 17.738281 3.496094 33.917969 12.90625 44.394531 25.816407l3.722656 4.582031 3.90625-4.421875c8.914063-10.085937 12.453125-25.246094 9.242188-39.574219zm0 0" fill="#c67045"/><path d="m391.660156 227.496094c-6.960937-5.421875-16.304687-8.054688-29.398437-8.285156-.777344-.015626-1.554688-.019532-2.332031-.019532-9.148438 0-18.328126 1.011719-27.28125 3.011719-13.5625 3.035156-23.308594 7.988281-29.792969 15.148437-9.589844 10.582032-9.585938 24.007813-4.597657 32.019532l1.84375 6.074218 5.503907-3.324218c1.542969-.933594 2.734375-1.613282 3.871093-2.210938 13.195313-6.980468 29.347657-11.0625 49.386719-12.480468 4.515625-.324219 8.925781-.484376 13.105469-.484376 7.773438 0 15.140625.5625 21.894531 1.679688l3.960938.652344 1.398437-3.488282c4.324219-7.734374 2.703125-20.3125-7.5625-28.292968zm0 0" fill="#cbe580"/><g fill="#fff"><path d="m172.585938 404.691406 18.605468-.210937 12.007813-34.957031c.628906-1.835938 2.292969-6.691407-.859375-9.480469-1.023438-.90625-2.40625-1.402344-3.933594-1.402344-.851562 0-1.691406.148437-2.46875.433594-2.074219.738281-3.640625 2.207031-4.949219 3.527343-9.59375 9.671876-15.6875 22.433594-17.175781 35.949219-.003906.03125-1.226562 6.140625-1.226562 6.140625zm0 0"/><path d="m132.316406 405.117188 18.894532-.207032.945312-3.734375c3.1875-12.609375 8.101562-24.652343 14.609375-35.792969l.15625-.28125c.902344-1.542968 1.832031-3.140624 2.230469-5.003906.429687-1.976562.207031-4.710937-1.640625-6.398437-1.070313-1.019531-2.566407-1.578125-4.21875-1.578125-.929688 0-1.851563.171875-2.707031.5-2.03125.765625-3.660157 2.21875-5.097657 3.660156-11.625 11.515625-19.507812 26.769531-22.195312 42.953125zm0 0"/><path d="m85.632812 398.960938-2.257812 6.675781 22.808594-.246094.960937-3.699219c3.398438-13.042968 9.902344-25.285156 18.835938-35.441406l.328125-.382812c1.398437-1.566407 2.984375-3.347657 3.835937-5.535157.972657-2.449219.949219-5.871093-1.3125-8.011719-1.140625-1.070312-2.75-1.660156-4.527343-1.660156-.828126 0-1.652344.128906-2.398438.359375-2.136719.640625-3.890625 1.980469-5.511719 3.308594-14 11.503906-24.921875 27.351563-30.761719 44.632813zm0 0"/><path d="m196.289062 327.527344 2.171876-3.847656c6.871093-12.175782 16.742187-22.496094 28.53125-29.859376l9.132812.277344-5.242188-8.019531c-3.101562-4.746094-6.984374-9.183594-11.546874-13.1875l-4.914063-4.308594-2.734375 5.582031c-14.058594 10.570313-25.1875 25.476563-31.363281 42.007813l-1.851563 4.949219 5.046875 1.570312c2.84375.886719 5.765625 1.949219 8.683594 3.152344zm0 0"/><path d="m164 253.421875c-3.714844 0-7.484375.195313-11.203125.585937l-2.035156.210938-1.300781 1.582031c-13.058594 15.832031-17.828126 37.863281-12.484376 57.503907v5.191406l5.363282-.390625c2.785156-.199219 5.585937-.300781 8.332031-.300781.800781 0 1.597656.007812 2.398437.023437l5.855469.125-.796875-5.804687c-2.40625-17.523438 1.960938-36.082032 11.980469-50.910157l5.148437-7.621093-9.195312-.175782c-.683594-.011718-1.375-.019531-2.0625-.019531zm0 0"/><path d="m114.558594 310.839844c-.558594-1.5-1.195313-3.199219-1.855469-4.820313-4.082031-9.925781-10.398437-19.117187-18.261719-26.585937l-3.179687-3.015625-3.410157 2.757812c-2.214843 1.792969-4.3125 3.695313-6.398437 5.816407l-3.191406 3.242187 2.929687 3.484375c7.820313 9.300781 13.453125 20.460938 16.296875 32.269531l1.390625 5.785157 5.457032-2.363282c3.097656-1.34375 6.339843-2.578125 9.644531-3.671875l5.214843-1.730469-2.210937-5.027343c-.859375-1.957031-1.605469-3.933594-2.425781-6.140625zm0 0"/></g><path d="m425.429688 55.859375-4.359376-.246094-.832031 4.285157c-6.261719 32.320312-15.355469 64.300781-27.019531 95.046874l-.828125 1.667969c-.96875-.4375-1.949219-.851562-2.964844-1.226562-9.921875-3.644531-20.441406-3.65625-30.609375-3.667969l-219.703125-.308594c-6.304687.007813-12.074219.207032-17.132812 2.023438l-.65625-1.535156-24.402344-97.511719-4.097656.199219c-22.492188 1.085937-45.105469 2.414062-67.203125 3.945312l-6.855469.476562 62.71875 156.148438-.835937 1.535156 1.515624.15625.765626 1.902344.945312-1.730469 4.257812.433594c2.664063.273437 4.875.484375 7.03125.6875l.152344.011719c2.859375.265625 5.816406.542968 9.839844.988281l2.289062.253906 1.679688-1.578125c11.238281-10.53125 27.335938-17.742187 46.5625-20.851562 6.53125-1.058594 12.921875-1.59375 19-1.59375 11.316406 0 21.859375 1.851562 31.347656 5.496094 8.304688 3.191406 15.664063 7.75 21.867188 13.546874l2.535156 2.332032 3.097656-1.523438 57.660156-.097656 3.152344 1.8125 2.695313-2.4375c4.195312-3.796875 8.835937-7.207031 13.792969-10.132812 13.054687-7.699219 27.679687-11.765626 42.296874-11.765626 10.988282 0 21.65625 2.394532 30.859376 6.925782 8.820312 4.335937 16.609374 10.976562 22.523437 19.210937l1.875 2.605469 3.148437-.617188c.597657-.117187 1.214844-.234374 1.867188-.355468 3.738281-.722656 7.980469-1.542969 11.910156-1.542969.789063 0 1.542969.035156 2.25.101563l4.609375.4375 1.828125 4.941406 65.726563-163.4375-6.796875-.527344c-22.171875-1.710938-44.882813-3.21875-67.503906-4.484375zm0 0" fill="#bfc7d8"/><path d="m454.570312 305.992188-1.714843-.949219c-10.25-12.398438-26.605469-20.089844-42.757813-20.089844-.355468 0-.710937.003906-1.0625.011719-3.710937.074218-7.355468.523437-10.878906.953125-3.792969.460937-7.71875.9375-11.554688.9375-1.867187 0-3.566406-.109375-5.203124-.335938-4.210938-.578125-8.367188-2.027343-12.386719-3.425781l-.082031-.027344c-2.519532-.886718-5.375-1.890625-8.273438-2.640625-4.433594-1.15625-9.136719-1.738281-13.980469-1.738281-11.8125 0-24.023437 3.40625-35.320312 9.855469-12.484375 7.136719-23.859375 17.574219-35.796875 32.851562l-1.179688 1.511719.128906 1.910156c.726563 10.527344 4.761719 20.144532 11.371094 27.078125l4.019532 4.21875 3.558593-4.617187c5.101563-6.613282 11.199219-12.433594 18.121094-17.296875 16.894531-11.84375 38.242187-18.105469 61.742187-18.105469 3.59375 0 7.253907.152344 10.882813.453125 16.929687 1.402344 40.8125 6.6875 58.480469 23.902344.183594.179687.359375.359375.535156.542969l5.128906 5.300781 3.171875-6.257813c4.726563-9.332031 5.980469-20.632812 3.535157-31.828125zm0 0" fill="#f9d889"/><path d="m8.261719 413.671875c4.097656 7.945313 7.6875 16.285156 10.867187 23.679687 4.21875 9.804688 8.582032 19.941407 14.105469 29.652344 3.558594 6.253906 7.59375 13.339844 14.085937 17.578125 6.761719 4.398438 15.152344 4.992188 22.460938 4.992188 1.585938 0 3.316406-.03125 5.609375-.09375l359.210937-10.332031c14.265626-.414063 25.953126-1.25 35.78125-7.78125 14.5625-9.65625 20.125-26.492188 26.015626-44.320313 1.960937-5.9375 4.179687-12.667969 6.785156-18.914063l2.921875-7.003906-501.558594 5.339844zm0 0" fill="#d8deec"/><path d="m246.824219 50.890625c80.15625 0 161.082031 3.039063 240.527343 9.035156l13.046876.984375-9.0625-9.433594c-15.976563-16.628906-33.851563-33.066406-56.273438-40.652343-15.878906-5.375-32.953125-5.824219-47.707031-5.824219-2.5 0-4.996094.015625-7.539063.03125l-255.457031 1.570312c-16.179687.101563-32.910156.207032-48.511719 5.667969-20.160156 7.046875-36.101562 22.246094-50.320312 37.613281l-8.550782 9.242188 12.5625-.855469c71.777344-4.894531 144.886719-7.378906 217.285157-7.378906zm0 0" fill="#d8deec"/><path d="m86.660156 405.605469 1.082032-3.476563c5.492187-17.652344 16.347656-33.800781 30.570312-45.484375 1.355469-1.121093 2.816406-2.257812 4.433594-2.75.523437-.15625 1.050781-.238281 1.566406-.238281 1.015625 0 1.898438.308594 2.476562.855469 1.027344.980469 1.269532 2.960937.570313 4.71875-.664063 1.675781-1.980469 3.167969-3.277344 4.640625l-.386719.433594c-8.730468 9.910156-15.273437 21.902343-18.917968 34.675781l-1.835938 6.441406 32.5-.347656.628906-4.210938c2.402344-16.003906 10.046876-31.085937 21.519532-42.453125 1.210937-1.191406 2.519531-2.40625 4.039062-2.980468.542969-.203126 1.097656-.304688 1.644532-.304688.878906 0 1.671874.269531 2.167968.738281.777344.734375 1.09375 2.175781.789063 3.582031-.3125 1.441407-1.113281 2.820313-1.898438 4.15625l-.164062.269532c-6.339844 10.871094-11.203125 22.546875-14.460938 34.707031l-1.703125 6.363281 23.917969-.25 6.035156-.074218-1.15625-5.761719c1.421875-12.855469 7.210938-24.972657 16.304688-34.136719 1.34375-1.347656 2.507812-2.339844 3.820312-2.820312.484375-.179688.980469-.269532 1.464844-.269532.832031 0 1.570313.265625 2.039063.734375 1.535156 1.53125.328124 5.039063-.070313 6.195313l-12.347656 35.957031 55.03125-.585937.296875-4.628907c1.175781-18.242187-6.160156-37.738281-19.617188-52.152343-12.726562-13.628907-31.035156-23.328126-51.546875-27.304688-7.007812-1.363281-14.238281-2.054688-21.492187-2.054688-21.460938 0-42.3125 5.835938-60.296875 16.878907-13.171875 8.074219-26.613281 17.125-33.582031 31.070312-5.234376 10.492188-6.851563 22.59375-4.566407 34.027344 0 0-1.40625 6.210937-1.40625 6.210937zm0 0" fill="#ed6d66"/><path d="m430.0625 401.933594 27.296875-.289063 1.164063-3.300781c6.5625-18.601562.042968-42.414062-15.855469-57.914062-17.664063-17.207032-41.539063-22.484376-58.457031-23.882813-3.644532-.300781-7.320313-.453125-10.921876-.453125-23.492187 0-44.832031 6.257812-61.703124 18.105469-21.648438 15.175781-34.957032 40.507812-33.902344 64.53125l.210937 4.832031 28.121094-.300781-1.726563-6.261719c-2.40625-8.722656-.691406-18.195312 4.589844-25.335938 5.402344-7.308593 14.476563-11.847656 23.675782-11.847656 1.230468 0 2.460937.082032 3.675781.242188 1.21875.160156 2.433593.40625 3.714843.664062l.394532.078125c2.414062.488281 4.90625.992188 7.453125.992188.601562 0 1.195312-.03125 1.765625-.085938 6.03125-.605469 11.078125-4.5 15.1875-8.207031.375-.332031.746094-.667969 1.117187-1.007812l.519531-.472657c3.597657-3.296875 7-6.40625 11.265626-8.058593 1.585937-.617188 3.347656-.941407 5.085937-.941407 2.101563 0 5.945313.492188 8.121094 3.796875 1.21875 1.847656 1.710937 4.375 2.183593 6.832032.734376 3.761718 1.566407 8.027343 5.316407 10.042968 1.226562.675782 2.648437 1.015625 4.222656 1.015625 2.121094 0 4.257813-.609375 6.308594-1.195312l.148437-.042969c.738282-.207031 1.464844-.414062 2.175782-.585938 1.457031-.347656 2.988281-.527343 4.546874-.527343 7.214844 0 14.339844 3.726562 18.144532 9.488281 4.234375 6.417969 4.449218 15.671875.519531 22.503906zm0 0" fill="#f7b36f"/><path d="m275.433594 311.402344-3.96875 18.894531 12.640625-14.589844c9.402343-10.855469 18.804687-18.886719 28.742187-24.566406 10.832032-6.183594 22.539063-9.453125 33.859375-9.453125 4.585938 0 9.023438.546875 13.179688 1.628906 2.710937.710938 5.421875 1.660156 8.046875 2.574219l.152344.054687c4.324218 1.503907 8.414062 2.925782 12.902343 3.546876 1.769531.242187 3.601563.363281 5.589844.363281 3.941406 0 7.769531-.460938 11.824219-.949219l.121094-.015625c3.457031-.421875 7.027343-.855469 10.574218-.933594.347656-.007812.695313-.011719 1.042969-.011719 10.824219 0 21.800781 3.621094 30.910156 10.199219l7.164063-6.714843c-8.105469-12.902344-21.609375-23.117188-38.03125-28.757813-1.222656-.421875-2.464844-.808594-3.71875-1.179687 1.28125.378906 2.539062.769531 3.753906 1.1875 0 0 .40625.152343.535156.199218l5.789063 2.03125.820312-6.082031c3.144531-23.292969-10.886719-48.230469-33.367187-59.304687-9.226563-4.542969-19.90625-6.945313-30.882813-6.945313-14.585937 0-29.203125 4.074219-42.265625 11.785156-15.253906 8.996094-26.832031 22-32.605468 36.625-5.871094 14.914063-5.414063 31.808594 1.226562 45.183594l3.378906 6.8125 4.136719-4.882813c-4.824219 5.914063-8.441406 12.457032-10.535156 19.320313-.375 1.222656-.707031 2.527344-1.015625 3.980469zm21.316406-33.042969c.113281-.089844.222656-.179687.332031-.273437-.109375.089843-.21875.183593-.332031.273437zm108.851562-17.125c-1-.285156-2.019531-.546875-3.042968-.804687 1.03125.257812 2.046875.523437 3.042968.804687zm-100.527343-21.875c6.058593-6.6875 15.292969-11.339844 28.234375-14.226563 8.742187-1.953124 17.730468-2.941406 26.71875-2.941406.726562 0 1.453125.003906 2.179687.019532 12.40625.21875 21.183594 2.648437 27.609375 7.644531 8.546875 6.65625 10.175782 16.738281 7.371094 23.257812l-2.371094 5.5 5.835938 1.351563h.011718c-8.699218-2.019532-18.164062-3.023438-28.695312-3.023438-4.179688 0-8.589844.164063-13.113281.484375-20.03125 1.417969-36.183594 5.503907-49.382813 12.484375-2.933594 1.550782-5.71875 3.269532-8.351562 5.121094l4.644531-3.347656-5.011719-3.976563c-4.34375-7-4.253906-18.882812 4.320313-28.347656zm0 0" fill="#f7b36f"/><path d="m168.050781 217.621094c.699219-.015625 1.394531-.019532 2.09375-.019532 21.894531 0 43.308594 6.15625 61.933594 17.808594l16.378906 10.25-9.355469-16.910156c-6.773437-12.246094-18.824218-22.40625-33.058593-27.875-9.421875-3.625-20.046875-5.464844-31.570313-5.464844-6.082031 0-12.402344.523438-18.78125 1.554688-14.34375 2.320312-34.445312 8.195312-48.757812 23.011718-2.949219 3.074219-5.535156 6.449219-7.6875 10.039063l7.035156 6.75c18.484375-12.125 39.84375-18.742187 61.769531-19.144531zm0 0" fill="#f7b36f"/><path d="m511.644531 399.269531c-.570312-2.09375-3.136719-13.757812-5.027343-22.351562-2.371094-10.785157-3.84375-17.449219-4.28125-19.03125-4.0625-14.742188-8.914063-29.460938-14.40625-43.742188-7.902344-20.535156-18.289063-40.417969-28.332032-59.644531-3.898437-7.460938-7.929687-15.175781-11.730468-22.773438-1.695313-3.386718-3.808594-7.59375-6.996094-11.113281l63.644531-158.234375c.726563-1.808594.339844-3.867187-.992187-5.289062-18.273438-19.488282-38.988282-41.578125-66.855469-51-18.609375-6.296875-38.9375-6.167969-56.882813-6.058594l-255.417968 1.570312c-15.828126.097657-33.769532.210938-50.171876 5.945313-25.121093 8.785156-44.246093 29.925781-59.613281 46.910156-1.285156 1.417969-1.644531 3.445313-.933593 5.21875l63.191406 157.328125c.253906.632813.625 1.183594 1.074218 1.640625l-76.800781 185.851563c-1.25 1.554687-1.507812 3.769531-.460937 5.609375 5.390625 9.480469 9.703125 19.5 13.871094 29.1875 4.277343 9.941406 8.703124 20.21875 14.367187 30.183593 3.648437 6.414063 8.191406 14.398438 15.703125 19.292969 7.660156 4.992188 16.9375 5.816407 24.917969 5.816407 2.117187 0 4.144531-.058594 6.027343-.109376l359.203126-10.328124c11.847656-.339844 26.59375-.765626 38.414062-8.613282 15.992188-10.613281 22.089844-29.066406 27.984375-46.910156 2.632813-7.964844 5.355469-16.183594 8.914063-23.570312 1.191406-.925782 1.960937-2.359376 1.945312-3.984376-.007812-.636718-.132812-1.242187-.355469-1.800781zm-19.09375-333.941406c-.730469 1.820313-1.460937 3.640625-2.195312 5.460937-10.363281 25.769532-20.726563 51.539063-31.09375 77.308594-5.582031 13.878906-11.164063 27.757813-16.746094 41.636719-1.871094 4.65625-3.746094 9.308594-5.617187 13.964844-.667969 1.664062-1.253907 3.226562-1.90625 4.621093-10.5625-17.320312-22.660157-33.796874-36.050782-49.023437-1.066406-1.210937-2.675781-3.039063-2.699218-4.140625-.015626-.625.457031-1.773438.871093-2.785156 12.136719-29.511719 21.683594-60.28125 28.398438-91.484375 5.871093.328125 11.738281.65625 17.617187 1.015625 8.402344.519531 16.796875 1.066406 25.195313 1.648437 2.269531.160157 23.820312 2.789063 24.226562 1.777344zm-185.53125 332.921875c-1.050781-8.421875.628907-16.617188 4.6875-22.667969 4.566407-6.796875 12.511719-10.914062 19.792969-10.246093 1.777344.164062 3.644531.597656 5.621094 1.054687 3.300781.761719 7.042968 1.628906 11.019531 1.289063 7.457031-.636719 13.488281-5.222657 18.40625-9.625.5-.449219 1-.902344 1.503906-1.355469 3.722657-3.375 7.242188-6.5625 11.300781-7.960938 3.398438-1.171875 8.167969-.507812 9.578126 2.324219.535156 1.078125.765624 2.6875 1.011718 4.386719.453125 3.144531 1.015625 7.054687 3.957032 10.183593 3.007812 3.203126 7.824218 4.613282 13.21875 3.867188 1.796874-.25 3.449218-.671875 5.046874-1.078125 1.484376-.378906 2.886719-.738281 4.203126-.894531 4.964843-.605469 10.234374 1.753906 13.105468 5.855468 4.644532 6.636719 2.675782 16.523438-1.332031 23.375-.039063.066407-.058594.132813-.09375.203126-1.59375.015624-3.1875.03125-4.789063.050781-6.65625.074219-13.3125.140625-19.964843.210937-13.066407.140625-26.128907.28125-39.191407.417969-19.046874.203125-38.066406.40625-57.082031.609375zm130.644531-30.601562c-5-7.148438-13.828124-11.09375-22.488281-10.050782-1.964843.234375-3.753906.691406-5.484375 1.136719-1.390625.355469-2.707031.691406-3.945312.863281-2.042969.28125-3.832032-.035156-4.558594-.808594-.78125-.832031-1.054688-2.738281-1.34375-4.757812-.332031-2.300781-.707031-4.902344-1.960938-7.421875-3.945312-7.929687-14.179687-9.949219-21.789062-7.324219-5.996094 2.066406-10.648438 6.285156-14.757812 10.007813-.484376.4375-.96875.878906-1.453126 1.3125-3.875 3.46875-8.078124 6.730469-12.589843 7.113281-2.40625.207031-5.085938-.414062-7.917969-1.070312-2.214844-.511719-4.503906-1.042969-6.953125-1.265626-10.980469-1.011718-22.371094 4.730469-29.015625 14.628907-5.199219 7.746093-7.484375 17.949219-6.433594 28.347656-4.765625.050781-9.53125.101563-14.296875.152344-.980469-22.359375 11.476563-45.976563 31.78125-60.21875 18.496094-12.980469 43.121094-18.933594 69.34375-16.765625 16.101563 1.332031 38.78125 6.316406 55.375 22.488281 5.746094 5.597656 10.152344 12.3125 13.027344 19.421875 4.453125 11.023438 5.226563 22.996094 1.609375 33.25-4.886719.050781-9.730469.101562-14.570312.152344 4.34375-10.398438 3.863281-21.417969-1.578126-29.191406zm-164.988281 30.96875-24.285156.257812c.855469-16.382812-4.515625-33.464844-14.800781-47.601562 13.832031-17.191407 15.328125-43.664063 3.632812-64.394532-.117187-.203125-.25-.398437-.367187-.601562.070312-.0625.148437-.109375.214843-.175782 12.898438-13.144531 16.773438-34.402343 9.640626-52.894531-1.769532-4.59375-4.171876-8.945312-7.082032-13l45.191406-.082031c-4.761718 5.882812-8.566406 12.289062-11.21875 19.023438-6.988281 17.726562-5.808593 37.359374 3.15625 52.523437.242188.410156.535157.769531.863282 1.082031-2.539063 4.222656-4.5625 8.648438-5.957032 13.214844-5.671874 18.546875-.800781 38.710938 12.101563 50.882812-7.660156 12.84375-11.65625 27.339844-11.089844 41.765626zm-94.011719.824218c.394532-13.207031 6.71875-26.199218 16.996094-34.523437.75-.609375 1.4375-1 1.960938-1.230469-.054688.410156-.160156.964844-.371094 1.699219-1.074219 3.710937-2.492188 7.355469-3.996094 11.207031-2.792968 7.175781-5.667968 14.570312-6.25 22.613281-1.78125.039063-3.5625.085938-5.339844.144531-1 .035157-2 .058594-3 .089844zm23.910157-19.21875c1.515625-3.890625 3.082031-7.914062 4.28125-12.058594 1.988281-6.875-.140625-10.59375-2.273438-12.5-3.863281-3.457031-9.835937-2.875-15.21875 1.484376-12.648437 10.242187-20.390625 26.296874-20.71875 42.554687-4.628906.105469-9.265625.191406-13.902343.253906.855468-6.785156 3.113281-13.402343 6.605468-19.273437.714844-1.207032 1.488282-2.40625 2.308594-3.683594 3.394531-5.257812 7.234375-11.21875 7.199219-18.476562-.015625-2.972657-.832031-5.394532-2.429688-7.199219-2.949219-3.320313-8.046875-3.953125-12.988281-1.609375-7.011719 3.332031-11.328125 9.871094-14.625 15.835937-6.035156 10.914063-10.660156 22.574219-13.769531 34.65625-5.425781.039063-10.835938.078125-16.226563.132813.148438-3.589844 1.945313-6.464844 5.03125-11.039063.5625-.832031 1.136719-1.6875 1.71875-2.574219 1.550782-2.378906 3.238282-4.660156 5.023438-7.074218 2.878906-3.898438 5.859375-7.929688 8.261718-12.433594 3.613282-6.78125 3-13.375-1.570312-16.796875-1.984375-1.488281-5.5-2.914063-10.972656-1.25-7.148438 2.175781-12.542969 7.285156-15.980469 10.941406-10.503906 11.171875-17.96875 25.527344-21.128906 40.542969-8.03125.085938-16.058594.171875-24.089844.257812.152344-.664062.175781-1.367187.035156-2.078124-2.074219-10.410157-.605469-21.371094 4.136719-30.863282 6.363281-12.746094 19.15625-21.335937 31.714844-29.042968 23.105468-14.175782 51.613281-19.34375 78.222656-14.179688 19.496094 3.785156 36.84375 12.953125 48.855469 25.816406 12.625 13.519532 19.363281 31.488282 18.277343 48.414063-2.203124.023437-4.410156.046875-6.613281.070312-11.601562.125-23.152343-.039062-34.691406.03125.613281-6.246093 3.007813-12.398437 5.527344-18.859375zm-57.894531 19.847656c-2.417969.023438-4.839844.042969-7.253907.0625 2.875-10.347656 6.941407-20.34375 12.140625-29.742187 2.523438-4.570313 5.707032-9.527344 10.160156-11.636719.425782-.203125.816407-.320312 1.125-.382812.003907.0625.003907.132812.003907.203125.023437 4.289062-2.710938 8.523437-5.601563 13.011719-.832031 1.292968-1.695312 2.628906-2.503906 3.992187-4.425781 7.441406-7.183594 15.878906-8.070312 24.492187zm-35.488282-18.804687c-.550781.839844-1.097656 1.652344-1.632812 2.445313-3.273438 4.847656-6.644532 9.84375-6.761719 16.734374-3.109375.035157-6.214844.066407-9.324219.101563 3.023438-12.453125 9.386719-24.273437 18.140625-33.582031 4.214844-4.484375 7.902344-7.097656 11.601563-8.222656 1-.304688 1.65625-.332032 1.96875-.300782.070312.636719-.167969 2.214844-1.160156 4.074219-2.054688 3.855469-4.6875 7.417969-7.476563 11.191406-1.789063 2.425781-3.644531 4.933594-5.355469 7.558594zm121.847656-103.402344c-11.15625-13.753906-28.148437-23.792969-47.3125-27.578125-19.625-3.871094-41.207031-1.753906-64.140624 6.300782-7.867188 2.761718-15 5.96875-21.40625 9.59375-.132813.074218-1.402344-9.367188-1.398438-10.273438.003906-2.726562.246094-5.582031.816406-8.296875 1.042969-.0625 2.078125-.4375 2.933594-1.171875 18.902344-16.15625 44-25.121094 68.867188-24.601562 24.863281.519531 49.566406 10.53125 67.777343 27.464843.882813.820313 1.984375 1.242188 3.101563 1.308594.789062 9.347656-1.816406 18.847656-9.238282 27.253906zm-107.324218 37.257813c-3.484375-13.300782-9.890625-25.882813-18.621094-36.492188-.902344-1.097656-1.863281-2.199218-2.925781-3.242187 6.5625-3.835938 13.628906-6.875 20.730469-9.367188 4.214843-1.476562 8.527343-2.839843 12.898437-4.007812-8.46875 13.851562-11.144531 31.210937-6.726563 46.910156.40625 1.445313.914063 3.039063 1.675782 4.625-2.34375.445313-4.691406.972656-7.03125 1.574219zm17.542968-2.984375c-.152343-.621094-.417968-1.21875-.816406-1.761719-.824218-1.125-1.34375-2.734375-1.746094-4.160156-4.570312-16.246094.003907-34.636719 11.652344-46.847656.113282-.117188.195313-.253907.292969-.378907 5.410156-.722656 10.855469-1 16.289063-.667969-4.53125 7.085938-7.839844 15.617188-9.820313 25.484376-1.890625 9.433593-2.429687 19.007812-2.847656 28.332031-2.675781-.207031-5.359375-.316407-8.046875-.265625-1.640625.03125-3.296875.132812-4.957032.265625zm25.65625-26.363281c2.074219-10.351563 5.71875-18.929688 10.824219-25.492188.175781-.230469.316407-.472656.449219-.71875 4.1875.640625 8.351562 1.511719 12.292969 2.78125 3.640625 1.171875 7.199219 2.617188 10.621093 4.328125 1.71875.859375 3.390626 1.808594 5.019532 2.824219-15.691406 10.898437-27.445313 27.136718-32.875 45.464844-.042969-.007813-.082032-.019532-.125-.027344-2.953125-.570313-5.921875-1.117188-8.90625-1.589844.410156-9.183594.902344-18.613281 2.699218-27.570312zm47.835938-9.992188c.289062.246094.582031.484375.871094.734375 4.621094 3.972656 9.394531 8.101563 12.742187 13.257813-13.695312 7.464843-25.140625 18.867187-32.648437 32.53125-4.199219-1.832032-8.414063-3.488282-12.78125-4.863282 5.167968-17.132812 16.621094-32.164062 31.816406-41.660156zm17.546875 23.230469c.832031 2.921875 1.445313 5.914062 1.945313 8.601562 1.164062 6.242188 1.183593 12.71875-.050782 18.953125-.304687 1.535156-6.589844 17.417969-7.160156 16.816406-5.703125-6.035156-12.785156-12.316406-20.320312-15.960937-.632813-.304687-1.257813-.605469-1.886719-.90625 6.4375-11.453125 16.023437-21.0625 27.472656-27.503906zm-62.6875-87.175781c-22.773437-.472657-45.71875 6.304687-64.746094 18.867187 1.710938-2.664063 3.625-5.136719 5.675781-7.261719 13.34375-13.820312 32.351563-19.34375 45.945313-21.542968 6.40625-1.035157 12.664063-1.53125 18.6875-1.488282 10.558594.074219 20.40625 1.792969 29.074219 5.125 13.253906 5.09375 25.464844 16.425782 31.742187 29.695313-18.921875-14.472657-42.582031-22.894531-66.378906-23.394531zm-76.0625 69.320312c1.269531.875 2.46875 2.175781 3.824219 3.824219 7.894531 9.59375 13.664062 20.992187 16.761718 33.03125-4.546874 1.566406-9.007812 3.371093-13.296874 5.375-4.335938-11.8125-10.863282-22.488281-17.3125-32.804688.566406-.621093 1.144531-1.253906 1.71875-1.875 2.550781-2.765625 5.339843-5.269531 8.304687-7.550781zm-16.6875 17.640625c5.777344 9.324219 11.40625 18.960937 15.003906 29.210937-1.390625.785157-2.765625 1.582032-4.097656 2.398438-5.125 3.144531-10.292969 6.441406-15.152344 10.113281-5.503906-12.304687-3.929687-28.460937 4.246094-41.722656zm370.90625 5.460937c.222656.164063.460937.289063.703125.410157 3.667969 10.785156 3.871094 22.664062-1.40625 33.097656-.300781-.304687-.597656-.613281-.90625-.914063-18.722656-18.246093-43.796875-23.824218-61.53125-25.289062-5.539062-.457031-11.019531-.582031-16.402344-.375-22.359375.859375-43.0625 7.375-59.511718 18.917969-7.433594 5.210937-13.890626 11.433593-19.214844 18.332031-5.296875-5.5625-8.386719-12.828125-9.476563-20.445312 9.429688-15.089844 21.800781-26.722657 35.796875-33.648438 15.34375-7.59375 32.65625-9.261719 47.503906-4.582031 1.757813.554687 3.5 1.199219 5.34375 1.878906 3.4375 1.273437 6.992188 2.585937 10.839844 3.355469 7.808594 1.5625 15.484375.628906 22.910156-.269532 4.394532-.535156 8.542969-1.039062 12.660157-1.042968h.0625c10.460937 0 24.171875 4.441406 32.628906 10.574218zm-32.628906-20.574218c-.027344 0-.054688 0-.082031 0-4.710938.007812-9.355469.570312-13.84375 1.117187-6.949219.839844-13.507813 1.636719-19.746094.390625-3.074219-.617187-6.117188-1.738281-9.335938-2.929687-1.871094-.691407-3.808594-1.410157-5.800781-2.035157-17.285156-5.453124-37.3125-3.574218-54.949219 5.15625-11.203125 5.546876-21.4375 13.738282-30.171875 24.050782.367188-1.335938.773438-2.652344 1.257813-3.929688 5.175781-13.617187 16.78125-24.53125 29.347656-31.175781 12.566406-6.648437 28.070312-10.546875 47.398438-11.917969 19.429687-1.375 35.574218.257813 49.351562 4.992188 11.957031 4.109375 23.574219 11.265625 31.453125 21.46875-8.136719-3.226563-17.132813-5.1875-24.878906-5.1875zm-101.574219-46.761719c3.148438-2.304687 7.027344-4.160156 12.574219-6.019531 12.914062-4.320313 26.917969-6.105469 40.503906-5.171875 3.457031.238281 7.488281.667969 11.164063 2.042969 9.699218 3.628906 16.207031 14.890624 14.507812 25.105468-.023438.148438-.015625.296875-.027344.445313-11.167968-1.597657-22.621094-1.675781-33.78125-.882813-11.984375.847656-23.980468 2.695313-35.4375 6.386719-7.140625 2.304687-13.269531 5.480469-19.253906 9.25-3.554688-10.894531.5-24.378906 9.75-31.15625zm98.851562 21.242187c-.203124-.070312-.398437-.148437-.601562-.21875-3.21875-1.105468-6.492188-2.03125-9.804688-2.804687.0625-.203125.132813-.40625.167969-.621094 2.488281-14.941406-6.679687-30.804687-20.867187-36.109375-4.90625-1.835937-10.050782-2.382812-13.984375-2.65625-14.875-1.019531-30.214844.9375-44.359375 5.667969-4.421875 1.480469-10.160156 3.664063-15.308594 7.4375-13.566406 9.933594-18.878906 29.515625-12.367188 44.980469-.15625.109375-.308593.214844-.464843.324218-1.394531 1-11.742188 8.046876-10.875 9.792969-5.972657-12.03125-6.421875-27.496093-1.046875-41.136719 5.351562-13.578124 16.175781-25.703124 30.484375-34.144531 21.839843-12.894531 48.050781-14.679687 68.398437-4.664062 20.773438 10.226562 33.476563 33.046875 30.628906 54.152343zm.046876-42.707031c-.648438.125-1.277344.246094-1.882813.359375-6.203125-8.625-14.515625-15.921875-24.378906-20.777344-23.335938-11.488281-53.183594-9.5625-77.898438 5.023438-5.320312 3.136719-10.214843 6.75-14.617187 10.730469-.730469-.417969-1.566406-.675781-2.476563-.675781l-57.679687.101562c-.800782 0-1.542969.207031-2.214844.542969-6.546875-6.117188-14.507812-11.109375-23.480469-14.558594-15.484375-5.949219-33.292969-7.355469-52.945312-4.175781-20.277344 3.277344-37.199219 10.914062-49.183594 22.148437-4.140625-.464843-7.160156-.746093-10.078125-1.015625-1.773438-.164062-3.328125-.195312-4.738281-.351562 11.761719-17.589844 22.96875-35.785156 33.386719-54.195313.285156.023438.574218.035157.871093.007813 86.898438-8.132813 174.984375-7.925782 261.851563.59375 1.054687 2.839844 3.003906 5.058594 4.433594 6.6875 13.21875 15.027344 25.140624 31.316406 35.519531 48.441406-.558594.046875-1.140625.074219-1.777344.0625-4.328125-.097656-8.300781.203125-12.710937 1.050781zm-24.597657-66.882812c-.085937.210937-.175781.429687-.265625.652343-86.621094-8.46875-174.441406-8.726562-261.109375-.761718-2.863281-32.160156-10.09375-62.199219-21.53125-89.417969 48.421875-2.144531 96.957031-3.207031 145.476563-3.152344 12.222656.011719 24.445312.09375 36.667968.25 24.304688.304688 48.609376.882813 72.902344 1.742188 12.136719.425781 24.269532.925781 36.402344 1.492187 6.339844.292969 12.667969.621094 18.992188.957032-6.574219 30.089843-15.824219 59.757812-27.535157 88.238281zm-310.367187-131.585938c14.832031-5.1875 31.152344-5.289062 46.933594-5.382812l255.417968-1.574219c17.988282-.113281 36.59375-.226562 53.617188 5.53125 21.449218 7.253906 38.867187 23.351562 54.261718 39.375-152.136718-11.472656-306.316406-12.035156-458.535156-1.664062 13.617188-14.707032 29.054688-29.554688 48.304688-36.285157zm-5.660156 160.722657c-9.75-24.269532-19.496094-48.539063-29.246094-72.808594-5.539063-13.796875-11.082032-27.589844-16.621094-41.382813.691406 1.722657 37.152344-2.359375 41.015625-2.578125 9.09375-.515625 18.199219-.972656 27.300781-1.410156 12.160156 27.789062 19.714844 58.761719 22.453125 92.113281-10.503906 18.679688-21.855469 37.160157-33.765625 55.011719-1.601562-3.320312-2.339844-7.046875-3.707031-10.449219-2.480469-6.164062-4.953125-12.332031-7.429687-18.496093zm15.359374 44.671874c2.886719.304688 5.226563.523438 7.503907.734376.953125.085937 1.921875.179687 2.929687.273437-10.390625 14.605469-13.691406 33.050781-8.164062 48.300781-7.800782 5.519532-14.214844 11.816406-19.15625 18.867188-12.183594 17.386718-14.273438 40.089844-5.574219 56.609375-4.941406 4.695312-9.246094 10.023437-12.402344 16.335937-5.726562 11.46875-7.5 24.710938-4.996093 37.285156.015624.078126.050781.148438.070312.226563l-34.183594.363281zm404.449219 203.101563c-5.609375 16.980469-10.90625 33.015625-24.019531 41.71875-8.742188 5.804687-19.722656 6.5625-33.171875 6.949219l-359.203125 10.324218c-9.914062.289063-18.65625.175782-25.199219-4.085937-5.476562-3.570313-9.191406-10.101563-12.46875-15.859375-5.390625-9.480469-9.703125-19.5-13.871093-29.191406-3.390626-7.878906-6.886719-15.972656-11.007813-23.953125l485.871094-5.175781c-2.648438 6.328124-4.816407 12.882812-6.929688 19.273437zm-27.324219-28.910156c4.527344-16.550781.554688-35.429688-10.371093-50.65625 9.726562-15.429688 9.886719-36.546875.339843-54.015625-6.847656-12.535156-18.148437-22.867188-32.386718-29.792969 2.3125-12.46875.023437-25.546875-5.800782-37.164063 4.984376-.933593 11.027344-1.859374 14.121094-.226562 3.710938 1.953125 6.136719 6.355469 8.703125 11.484375 3.839844 7.675781 7.890625 15.429687 11.808594 22.925781 9.914063 18.980469 20.164063 38.605469 27.859375 58.605469 5.378906 13.980469 10.125 28.382813 14.105469 42.8125.394531 1.441406 2.390625 10.515625 4.152343 18.519531 1.234376 5.597656 2.507813 11.386719 3.492188 15.777344.105469.464844.207031.914062.304688 1.34375zm46.457032 1.273437c.3125.355469.566406.742188.746094 1.140625-.195313-.414062-.449219-.796875-.746094-1.140625zm0 0"/></svg>